<mxfile host="65bd71144e">
    <diagram id="d-PuGPOTIKNSk0kqF5Lq" name="Page-1">
        <mxGraphModel dx="1133" dy="821" grid="1" gridSize="10" guides="1" tooltips="1" connect="1" arrows="1" fold="1" page="1" pageScale="1" pageWidth="827" pageHeight="1169" math="0" shadow="0">
            <root>
                <mxCell id="0"/>
                <mxCell id="1" parent="0"/>
                <mxCell id="2" value="GÃ¦st" style="shape=umlActor;verticalLabelPosition=bottom;verticalAlign=top;html=1;outlineConnect=0;" parent="1" vertex="1">
                    <mxGeometry x="70" y="415" width="30" height="60" as="geometry"/>
                </mxCell>
                <mxCell id="6" value="&lt;p style=&quot;margin:0px;margin-top:4px;margin-left:10px;text-align:left;&quot;&gt;&lt;b&gt;Brugeradministration&lt;/b&gt;&lt;/p&gt;" style="html=1;shape=mxgraph.sysml.package;html=1;overflow=fill;whiteSpace=wrap;labelX=144;" parent="1" vertex="1">
                    <mxGeometry x="160" y="290" width="200" height="290" as="geometry"/>
                </mxCell>
                <mxCell id="3" value="Opret medarbejder" style="ellipse;whiteSpace=wrap;html=1;" parent="1" vertex="1">
                    <mxGeometry x="190" y="330" width="140" height="70" as="geometry"/>
                </mxCell>
                <mxCell id="7" value="" style="endArrow=classic;html=1;entryX=0;entryY=0.5;entryDx=0;entryDy=0;" parent="1" source="2" target="3" edge="1">
                    <mxGeometry width="50" height="50" relative="1" as="geometry">
                        <mxPoint x="40" y="280" as="sourcePoint"/>
                        <mxPoint x="90" y="230" as="targetPoint"/>
                    </mxGeometry>
                </mxCell>
            </root>
        </mxGraphModel>
    </diagram>
</mxfile>